<?xml version="1.0" encoding="UTF-8"?>
<svg width="400px" height="400px" viewBox="0 0 400 400" version="1.1" xmlns="http://www.w3.org/2000/svg" xmlns:xlink="http://www.w3.org/1999/xlink">
    <!-- Generator: Sketch 47.1 (45422) - http://www.bohemiancoding.com/sketch -->
    <title>more-app</title>
    <desc>Created with Sketch.</desc>
    <defs></defs>
    <g id="Page-1" stroke="none" stroke-width="1" fill="none" fill-rule="evenodd">
        <g id="more-app" fill-rule="nonzero">
            <g transform="translate(20.000000, 25.000000)" id="Shape">
                <path d="M138.661353,7.57449161 L18.2664096,7.57449161 C8.29397089,7.57449161 0.207476518,15.6650975 0.207476518,25.6371252 L0.207476518,146.020557 C0.207476518,155.992584 8.29397089,164.08319 18.2664096,164.08319 L138.661353,164.08319 C148.621458,164.08319 156.719876,155.992584 156.719876,146.020557 L156.719875,25.6371252 C156.719875,15.6650979 148.621457,7.57449161 138.661353,7.57449161 Z" fill="#4A4A4A"></path>
                <path d="M323.747431,192.665092 L203.348375,192.665092 C193.375937,192.665092 185.293554,200.747475 185.293554,210.719502 L185.293554,331.110746 C185.293554,341.083184 193.375937,349.165567 203.348375,349.165567 L323.747431,349.165567 C333.711646,349.165567 341.802252,341.083184 341.802252,331.110746 L341.802252,210.719502 C341.802252,200.747475 333.711646,192.665092 323.747431,192.665092 Z" fill="#4A4A4A"></path>
                <path d="M350.974182,53.6643856 L253.67599,2.2990283 C245.626088,-1.95513871 235.645427,1.13300759 231.383448,9.17509781 L180.009867,106.493025 C175.763923,114.559373 178.847958,124.524 186.910195,128.794202 L284.212498,180.151337 C292.270623,184.405504 302.266909,181.317357 306.521076,173.267044 L357.878621,75.9651521 C362.1369,67.8988033 359.052454,57.9185526 350.974182,53.6643856 Z" fill="#FFCB29"></path>
                <path d="M138.661353,192.665092 L18.2664096,192.665092 C8.29397089,192.665092 0.207476518,200.747475 0.207476518,210.719502 L0.207476518,331.110746 C0.207476518,341.083184 8.29397089,349.165567 18.2664096,349.165567 L138.661353,349.165567 C148.621458,349.165567 156.719876,341.083184 156.719876,331.110746 L156.719875,210.719502 C156.719875,200.747475 148.621457,192.665092 138.661353,192.665092 Z" fill="#4A4A4A"></path>
            </g>
        </g>
    </g>
</svg>