<?xml version="1.0" encoding="UTF-8"?>
<svg width="400px" height="400px" viewBox="0 0 400 400" version="1.1" xmlns="http://www.w3.org/2000/svg" xmlns:xlink="http://www.w3.org/1999/xlink">
    <!-- Generator: Sketch 47.1 (45422) - http://www.bohemiancoding.com/sketch -->
    <title>api 2</title>
    <desc>Created with Sketch.</desc>
    <defs></defs>
    <g id="Page-1" stroke="none" stroke-width="1" fill="none" fill-rule="evenodd">
        <g id="api-2" fill-rule="nonzero" fill="#4CAF50">
            <g id="api-(1)" transform="translate(40.000000, 40.000000)">
                <path d="M73.2673267,0 L85.2673267,0 L85.2673267,23.6831683 L73.2673267,23.6831683 L73.2673267,0 Z M85.2673267,23.8415842 L88,23.8415842 L88,44.4752475 L85.2673267,44.4752475 L85.2673267,23.8415842 Z M70.4158416,23.8415842 L73.2673267,23.8415842 L73.2673267,44.4752475 L70.4158416,44.4752475 L70.4158416,23.8415842 Z M73.2673267,23.8415842 L85.2673267,23.8415842 L85.2673267,44.4752475 L73.2673267,44.4752475 L73.2673267,23.8415842 Z M105.425743,0 L117.425743,0 L117.425743,23.6831683 L105.425743,23.6831683 L105.425743,0 Z M102.574257,23.8415842 L105.425743,23.8415842 L105.425743,44.4752475 L102.574257,44.4752475 L102.574257,23.8415842 Z M117.425743,23.8415842 L120.316832,23.8415842 L120.316832,44.4752475 L117.425743,44.4752475 L117.425743,23.8415842 Z M105.425743,23.8415842 L117.425743,23.8415842 L117.425743,44.4752475 L105.425743,44.4752475 L105.425743,23.8415842 Z M137.90099,0 L149.90099,0 L149.90099,23.6831683 L137.90099,23.6831683 L137.90099,0 Z M149.90099,23.8415842 L152.792079,23.8415842 L152.792079,44.4752475 L149.90099,44.4752475 L149.90099,23.8415842 Z M135.049505,23.8415842 L137.90099,23.8415842 L137.90099,44.4752475 L135.049505,44.4752475 L135.049505,23.8415842 Z M137.90099,23.8415842 L149.90099,23.8415842 L149.90099,44.4752475 L137.90099,44.4752475 L137.90099,23.8415842 Z M170.09901,0 L182.09901,0 L182.09901,23.6831683 L170.09901,23.6831683 L170.09901,0 Z M182.09901,23.8415842 L184.950495,23.8415842 L184.950495,44.4752475 L182.09901,44.4752475 L182.09901,23.8415842 Z M167.207921,23.8415842 L170.09901,23.8415842 L170.09901,44.4752475 L167.207921,44.4752475 L167.207921,23.8415842 Z M170.09901,23.8415842 L182.09901,23.8415842 L182.09901,44.4752475 L170.09901,44.4752475 L170.09901,23.8415842 Z M202.574257,0 L214.574257,0 L214.574257,23.6831683 L202.574257,23.6831683 L202.574257,0 Z M214.574257,23.8415842 L217.425743,23.8415842 L217.425743,44.4752475 L214.574257,44.4752475 L214.574257,23.8415842 Z M199.683168,23.8415842 L202.574257,23.8415842 L202.574257,44.4752475 L199.683168,44.4752475 L199.683168,23.8415842 Z M202.574257,23.8415842 L214.574257,23.8415842 L214.574257,44.4752475 L202.574257,44.4752475 L202.574257,23.8415842 Z M234.732673,0 L246.732673,0 L246.732673,23.6831683 L234.732673,23.6831683 L234.732673,0 Z M246.732673,23.8415842 L249.584158,23.8415842 L249.584158,44.4752475 L246.732673,44.4752475 L246.732673,23.8415842 Z M232,23.8415842 L234.732673,23.8415842 L234.732673,44.4752475 L232,44.4752475 L232,23.8415842 Z M234.732673,23.8415842 L246.732673,23.8415842 L246.732673,44.4752475 L234.732673,44.4752475 L234.732673,23.8415842 Z M232,296.316832 L244,296.316832 L244,320 L232,320 L232,296.316832 Z M229.108911,275.683168 L232,275.683168 L232,296.316832 L229.108911,296.316832 L229.108911,275.683168 Z M244,275.683168 L246.732673,275.683168 L246.732673,296.316832 L244,296.316832 L244,275.683168 Z M232,275.683168 L244,275.683168 L244,296.316832 L232,296.316832 L232,275.683168 Z M199.683168,296.316832 L211.683168,296.316832 L211.683168,320 L199.683168,320 L199.683168,296.316832 Z M196.633663,275.683168 L199.524752,275.683168 L199.524752,296.316832 L196.633663,296.316832 L196.633663,275.683168 Z M211.524752,275.683168 L214.415842,275.683168 L214.415842,296.316832 L211.524752,296.316832 L211.524752,275.683168 Z" id="Shape"></path>
                <path d="M199.683168,275.683168 L211.683168,275.683168 L211.683168,296.316832 L199.683168,296.316832 L199.683168,275.683168 Z M167.207921,296.316832 L179.683168,296.316832 L179.683168,320 L167.207921,320 L167.207921,296.316832 Z M164.475248,275.683168 L167.207921,275.683168 L167.207921,296.316832 L164.475248,296.316832 L164.475248,275.683168 Z M179.366337,275.683168 L182.09901,275.683168 L182.09901,296.316832 L179.366337,296.316832 L179.366337,275.683168 Z" id="Shape"></path>
                <path d="M167.207921,275.683168 L179.683168,275.683168 L179.683168,296.316832 L167.207921,296.316832 L167.207921,275.683168 Z M135.049505,296.316832 L147.049505,296.316832 L147.049505,320 L135.049505,320 L135.049505,296.316832 Z M132.158416,275.683168 L135.049505,275.683168 L135.049505,296.316832 L132.158416,296.316832 L132.158416,275.683168 Z M147.049505,275.683168 L149.90099,275.683168 L149.90099,296.316832 L147.049505,296.316832 L147.049505,275.683168 Z M135.049505,275.683168 L147.049505,275.683168 L147.049505,296.316832 L135.049505,296.316832 L135.049505,275.683168 Z M102.574257,296.316832 L114.574257,296.316832 L114.574257,320 L102.574257,320 L102.574257,296.316832 Z M100,275.683168 L102.732673,275.683168 L102.732673,296.316832 L100,296.316832 L100,275.683168 Z M114.574257,275.683168 L117.425743,275.683168 L117.425743,296.316832 L114.574257,296.316832 L114.574257,275.683168 Z" id="Shape"></path>
                <path d="M102.574257,275.683168 L114.574257,275.683168 L114.574257,296.316832 L102.574257,296.316832 L102.574257,275.683168 Z M70.4158416,296.316832 L82.4158416,296.316832 L82.4158416,320 L70.4158416,320 L70.4158416,296.316832 Z M67.5247525,275.683168 L70.4158416,275.683168 L70.4158416,296.316832 L67.5247525,296.316832 L67.5247525,275.683168 Z M82.4158416,275.683168 L85.2673267,275.683168 L85.2673267,296.316832 L82.4158416,296.316832 L82.4158416,275.683168 Z M70.4158416,275.683168 L82.4158416,275.683168 L82.4158416,296.316832 L70.4158416,296.316832 L70.4158416,275.683168 Z M296.633663,73.7425743 L320,73.7425743 L320,85.7425743 L296.633663,85.7425743 L296.633663,73.7425743 Z M276.158416,85.7425743 L296.633663,85.7425743 L296.633663,88.950495 L276.158416,88.950495 L276.158416,85.7425743 Z M276.158416,71.2079208 L296.633663,71.2079208 L296.633663,73.9405941 L276.158416,73.9405941 L276.158416,71.2079208 Z" id="Shape"></path>
                <path d="M276.158416,73.7425743 L296.633663,73.7425743 L296.633663,85.7425743 L276.158416,85.7425743 L276.158416,73.7425743 Z M296.633663,106.732673 L320,106.732673 L320,118.732673 L296.633663,118.732673 L296.633663,106.732673 Z M276.158416,103.524752 L296.633663,103.524752 L296.633663,106.415842 L276.158416,106.415842 L276.158416,103.524752 Z M276.158416,118.732673 L296.633663,118.732673 L296.633663,121.584158 L276.158416,121.584158 L276.158416,118.732673 Z M276.158416,106.732673 L296.633663,106.732673 L296.633663,118.732673 L276.158416,118.732673 L276.158416,106.732673 Z M296.633663,139.366337 L320,139.366337 L320,151.366337 L296.633663,151.366337 L296.633663,139.366337 Z M276.158416,151.524752 L296.633663,151.524752 L296.633663,154.257426 L276.158416,154.257426 L276.158416,151.524752 Z M276.158416,136.475248 L296.633663,136.475248 L296.633663,139.366337 L276.158416,139.366337 L276.158416,136.475248 Z" id="Shape"></path>
                <path d="M276.158416,139.366337 L296.633663,139.366337 L296.633663,151.366337 L276.158416,151.366337 L276.158416,139.366337 Z M296.633663,171.841584 L320,171.841584 L320,183.841584 L296.633663,183.841584 L296.633663,171.841584 Z M276.158416,168.633663 L296.633663,168.633663 L296.633663,171.524752 L276.158416,171.524752 L276.158416,168.633663 Z M276.158416,184 L296.633663,184 L296.633663,186.891089 L276.158416,186.891089 L276.158416,184 Z M276.158416,171.841584 L296.633663,171.841584 L296.633663,183.841584 L276.158416,183.841584 L276.158416,171.841584 Z M296.633663,204.633663 L320,204.633663 L320,216.633663 L296.633663,216.633663 L296.633663,204.633663 Z M276.158416,216.633663 L296.633663,216.633663 L296.633663,219.524752 L276.158416,219.524752 L276.158416,216.633663 Z M276.158416,201.584158 L296.633663,201.584158 L296.633663,204.475248 L276.158416,204.475248 L276.158416,201.584158 Z M276.158416,204.633663 L296.633663,204.633663 L296.633663,216.633663 L276.158416,216.633663 L276.158416,204.633663 Z M296.633663,236.792079 L320,236.792079 L320,248.792079 L296.633663,248.792079 L296.633663,236.792079 Z M276.158416,249.108911 L296.633663,249.108911 L296.633663,252 L276.158416,252 L276.158416,249.108911 Z M276.158416,234.415842 L296.633663,234.415842 L296.633663,237.108911 L276.158416,237.108911 L276.158416,234.415842 Z" id="Shape"></path>
                <path d="M276.158416,236.792079 L296.633663,236.792079 L296.633663,248.792079 L276.158416,248.792079 L276.158416,236.792079 Z M0,236.792079 L23.3663366,236.792079 L23.3663366,248.792079 L0,248.792079 L0,236.792079 Z M23.3663366,249.108911 L43.8415842,249.108911 L43.8415842,252 L23.3663366,252 L23.3663366,249.108911 Z M23.3663366,234.415842 L43.8415842,234.415842 L43.8415842,237.108911 L23.3663366,237.108911 L23.3663366,234.415842 Z" id="Shape"></path>
                <path d="M23.3663366,236.792079 L43.8415842,236.792079 L43.8415842,248.792079 L23.3663366,248.792079 L23.3663366,236.792079 Z M0,204.633663 L23.3663366,204.633663 L23.3663366,216.633663 L0,216.633663 L0,204.633663 Z M23.3663366,201.584158 L43.8415842,201.584158 L43.8415842,204.475248 L23.3663366,204.475248 L23.3663366,201.584158 Z M23.3663366,216.633663 L43.8415842,216.633663 L43.8415842,219.524752 L23.3663366,219.524752 L23.3663366,216.633663 Z M23.3663366,204.633663 L43.8415842,204.633663 L43.8415842,216.633663 L23.3663366,216.633663 L23.3663366,204.633663 Z M0,171.841584 L23.3663366,171.841584 L23.3663366,183.841584 L0,183.841584 L0,171.841584 Z M23.3663366,184 L43.8415842,184 L43.8415842,186.891089 L23.3663366,186.891089 L23.3663366,184 Z M23.3663366,168.633663 L43.8415842,168.633663 L43.8415842,171.524752 L23.3663366,171.524752 L23.3663366,168.633663 Z M23.3663366,171.841584 L43.8415842,171.841584 L43.8415842,183.841584 L23.3663366,183.841584 L23.3663366,171.841584 Z M0,139.366337 L23.3663366,139.366337 L23.3663366,151.366337 L0,151.366337 L0,139.366337 Z M23.3663366,136.475248 L43.8415842,136.475248 L43.8415842,139.366337 L23.3663366,139.366337 L23.3663366,136.475248 Z M23.3663366,151.524752 L43.8415842,151.524752 L43.8415842,154.257426 L23.3663366,154.257426 L23.3663366,151.524752 Z" id="Shape"></path>
                <path d="M23.3663366,139.366337 L43.8415842,139.366337 L43.8415842,151.366337 L23.3663366,151.366337 L23.3663366,139.366337 Z M0,106.732673 L23.3663366,106.732673 L23.3663366,118.732673 L0,118.732673 L0,106.732673 Z M23.3663366,103.524752 L43.8415842,103.524752 L43.8415842,106.415842 L23.3663366,106.415842 L23.3663366,103.524752 Z M23.3663366,118.732673 L43.8415842,118.732673 L43.8415842,121.584158 L23.3663366,121.584158 L23.3663366,118.732673 Z M23.3663366,106.732673 L43.8415842,106.732673 L43.8415842,118.732673 L23.3663366,118.732673 L23.3663366,106.732673 Z M0,73.7425743 L23.3663366,73.7425743 L23.3663366,85.7425743 L0,85.7425743 L0,73.7425743 Z M23.3663366,85.7425743 L43.8415842,85.7425743 L43.8415842,88.950495 L23.3663366,88.950495 L23.3663366,85.7425743 Z M23.3663366,71.2079208 L43.8415842,71.2079208 L43.8415842,73.9405941 L23.3663366,73.9405941 L23.3663366,71.2079208 Z" id="Shape"></path>
                <path d="M23.3663366,73.7425743 L43.8415842,73.7425743 L43.8415842,85.7425743 L23.3663366,85.7425743 L23.3663366,73.7425743 Z M176.950495,131.524752 L170.851485,131.524752 L170.851485,152.475248 L176.752475,152.475248 C184.752475,152.475248 188.910891,148.950495 188.910891,141.90099 C188.950495,135.049505 184.950495,131.524752 176.950495,131.524752 Z M117.742574,132 L117.425743,132 C117.267327,133.90099 116.950495,135.683168 116.316832,137.425743 L108.950495,160.158416 L126.059406,160.158416 L118.693069,137.584158 C118.257426,136.158416 117.90099,134.257426 117.742574,132 L117.742574,132 Z" id="Shape"></path>
                <path d="M247.207921,55.2079208 L73.5841584,55.2079208 C62.2178218,55.2079208 53.1089109,64.6336634 53.1089109,75.8415842 L53.1089109,247.841584 C53.1089109,259.366337 62.3762376,268.475248 73.5841584,268.475248 L247.168317,268.475248 C258.534653,268.475248 267.643564,259.049505 267.643564,247.841584 L267.643564,75.8415842 C267.683168,64.3168317 258.415842,55.2079208 247.207921,55.2079208 Z M134.257426,185.742574 L129.465347,170.851485 L105.940594,170.851485 L101.108911,185.742574 L86.2178218,185.742574 L109.90099,120.792079 L126.059406,120.792079 L149.108911,185.742574 L134.257426,185.742574 Z M196,157.267327 C191.207921,161.267327 185.108911,163.168317 177.90099,163.009901 L170.851485,163.009901 L170.851485,185.742574 L157.108911,185.742574 L157.108911,120.792079 L179.207921,120.792079 C195.207921,120.792079 203.207921,127.683168 203.207921,141.267327 C203.207921,148 200.792079,153.267327 196,157.267327 L196,157.267327 Z M226.891089,185.742574 L213.148515,185.742574 L213.148515,120.792079 L226.891089,120.792079 L226.891089,185.742574 Z" id="Shape"></path>
            </g>
        </g>
    </g>
</svg>