<?xml version="1.0" encoding="UTF-8"?>
<svg width="400px" height="400px" viewBox="0 0 400 400" version="1.1" xmlns="http://www.w3.org/2000/svg" xmlns:xlink="http://www.w3.org/1999/xlink">
    <!-- Generator: Sketch 47.1 (45422) - http://www.bohemiancoding.com/sketch -->
    <title>sdk2</title>
    <desc>Created with Sketch.</desc>
    <defs></defs>
    <g id="Page-1" stroke="none" stroke-width="1" fill="none" fill-rule="evenodd">
        <g id="sdk2" fill-rule="nonzero">
            <g id="配置SDK" transform="translate(40.000000, 24.000000)">
                <path d="M319.276817,182.211565 C321.015172,173.519788 318.842228,164.828011 314.061751,157.657294 C311.888806,154.397878 308.846684,151.57305 305.804562,149.400106 L303.414324,147.879045 L305.804562,146.14069 C309.063979,143.967745 311.888806,141.142918 314.061751,137.883501 C319.059523,130.712785 321.015172,122.021008 319.276817,113.329231 C317.538462,104.637454 312.975279,97.249443 305.804562,92.2516711 L177.16626,5.3338992 C166.953422,-1.61952255 153.481167,-1.61952255 143.268329,5.3338992 L14.4127321,92.2516711 C11.1533156,94.4246154 8.32848806,97.4667374 6.15554377,100.508859 C-4.05729443,115.284881 -0.363289125,135.710557 14.4127321,145.923395 L16.8029708,147.661751 L14.4127321,149.400106 C-0.363289125,159.612944 -4.27458886,180.038621 6.15554377,194.814642 C8.32848806,198.074058 11.3706101,200.898886 14.4127321,203.07183 L16.8029708,204.810186 L14.4127321,206.548541 C-0.363289125,216.761379 -4.27458886,237.187056 6.15554377,251.963077 C8.32848806,255.222493 11.3706101,258.047321 14.4127321,260.220265 L143.051034,346.920743 C148.266101,350.397454 153.915756,352.135809 159.782706,352.135809 C165.649655,352.135809 171.516605,350.397454 176.514377,346.920743 L305.152679,260.220265 C319.9287,250.007427 323.622706,229.581751 313.409867,214.805729 C311.236923,211.546313 308.412095,208.721485 305.152679,206.548541 L302.76244,204.810186 L305.152679,203.07183 C312.975279,198.291353 317.755756,190.903342 319.276817,182.211565 L319.276817,182.211565 Z M298.851141,135.275968 L169.995544,221.976446 C163.891903,226.104645 155.890803,226.104645 149.787162,221.976446 L21.3661538,135.275968 C19.410504,133.972202 17.6721485,132.233846 16.368382,130.278196 C10.0668435,121.369125 12.2397878,108.983342 21.3661538,103.116393 L150.004456,16.4159151 L150.439045,16.1986207 C156.523289,12.287321 164.345889,12.287321 170.212838,16.4159151 L298.851141,103.116393 C300.80679,104.420159 302.545146,105.94122 303.848912,108.114164 C310.150451,116.805942 307.760212,128.97443 298.851141,135.275968 Z M291.897719,211.632785 L299.068435,216.413263 C303.414324,219.23809 306.239151,223.801273 307.325623,229.01634 C308.194801,234.231406 307.108329,239.446472 304.283501,243.575066 C302.979735,245.530716 301.458674,247.269072 299.285729,248.572838 L170.212838,335.49061 C164.109197,339.618809 156.108097,339.618809 150.004456,335.49061 L21.3661538,248.790133 C12.4570822,242.488594 10.2841379,230.320106 16.368382,221.628329 C17.6721485,219.672679 19.410504,217.934324 21.3661538,216.630557 L28.53687,211.85008 L143.268329,289.206897 C153.481167,296.160318 166.953422,296.160318 177.16626,289.206897 L291.897719,211.632785 L291.897719,211.632785 Z" id="Shape" fill="#FFC10D"></path>
                <path d="M245.782493,85.9195058 L198.058949,80.4653865 L190.07256,53 L175.463312,62.7394988 L183.254911,84.166396 L162.801964,71.1154677 L150.140616,79.4914366 L203.707859,113.774472 L216.563997,105.593293 L196.30584,92.5423649 L229.225345,97.0225344 L245.782493,85.9195058 Z M137.284477,136.759689 C133.583468,134.42221 129.492878,133.05868 125.402289,132.6691 C119.753379,132.27952 114.10447,133.05868 108.650351,134.617 C104.949341,135.590949 101.053542,136.175319 97.3525323,136.564899 C95.7942125,136.564899 94.4306827,136.175319 92.8723629,135.396159 C92.287993,135.00658 91.7036231,134.22742 92.093203,133.44826 C92.6775729,131.88994 94.0411028,130.52641 95.7942125,129.55246 C99.884802,127.020191 104.559761,125.267081 109.429511,124.877501 L114.10447,124.293131 L99.3004321,114.943212 L98.7160622,114.943212 C93.8463128,116.501532 89.1713534,118.644222 84.8859739,121.371281 C79.2370647,125.072291 75.9256351,129.16288 75.1464752,133.44826 C74.3673153,138.123219 76.704795,142.019019 81.9641243,145.330448 C88.5869835,149.615828 97.7421123,150.589778 108.650351,147.862718 C112.93573,146.499188 117.4159,145.720028 121.506489,145.525238 C123.064809,145.525238 124.817919,145.914818 126.181449,146.888768 C126.960609,147.278348 127.350189,148.057508 127.155399,148.836668 C126.960609,149.421038 126.376239,150.784568 123.454389,152.732467 C118.38985,155.849107 112.54615,157.407427 106.507661,157.602217 L100.858752,157.602217 L116.83153,167.926085 L117.4159,167.731295 C123.259599,166.367766 128.908508,164.030286 133.778258,160.718856 C140.011537,156.628267 143.322966,152.537677 143.907336,148.252298 C145.270866,144.161708 142.933387,140.265909 137.284477,136.759689 L137.284477,136.759689 Z M172.151883,98.3860642 C155.205155,87.4778256 138.063637,87.4778256 121.116909,98.9704341 L103.001442,110.852623 L156.763475,145.330448 L173.515413,134.22742 C181.307012,129.16288 185.008021,123.319181 184.813231,116.501532 C184.618441,109.683883 180.333062,103.450604 172.151883,98.3860642 L172.151883,98.3860642 Z M162.217594,126.046241 L157.737425,128.96809 L127.739768,109.683883 L131.051198,107.541193 C135.336577,104.814133 140.206327,103.255814 145.076076,103.450604 C150.530196,103.450604 155.789525,105.008923 160.074904,108.125563 C164.749864,111.242203 167.476923,114.358842 167.866503,117.475482 C168.256083,120.397331 166.308184,123.124391 162.217594,126.046241 L162.217594,126.046241 Z" id="Shape" fill="#CFCECE"></path>
            </g>
        </g>
    </g>
</svg>