<?xml version="1.0" encoding="UTF-8"?>
<svg width="504px" height="504px" viewBox="0 0 504 504" version="1.1" xmlns="http://www.w3.org/2000/svg" xmlns:xlink="http://www.w3.org/1999/xlink">
    <!-- Generator: Sketch 47.1 (45422) - http://www.bohemiancoding.com/sketch -->
    <title>log-about-page</title>
    <desc>Created with Sketch.</desc>
    <defs>
        <path d="M244,488 C109.312,488 0,378.688 0,244 C0,109.312 109.312,0 244,0 C378.688,0 488,109.312 488,244 C488,378.688 378.688,488 244,488 Z M172.122737,210.790316 L167.306947,231.517474 C170.812842,230.104842 175.063579,228.666526 179.982105,227.112632 C184.671274,225.642204 189.553768,224.880397 194.468,224.852421 C204.061053,224.852421 210.520632,226.521895 213.923789,229.912211 C217.288421,233.251158 218.996421,239.261263 218.996421,247.826947 C218.996421,252.591369 218.457053,257.869474 217.365474,263.622737 C216.158316,269.761263 214.797053,275.861263 213.268842,281.909895 L195.058737,349.112632 C193.594737,355.379579 192.413263,361.697895 191.527158,368.080421 C190.818222,373.539652 190.462184,379.03893 190.461263,384.544 C190.461263,398.362105 195.315579,409.740211 205.088421,418.704 C214.848421,427.693474 228.550947,432.188211 246.183158,432.188211 C257.638316,432.188211 267.719369,430.608632 276.387789,427.462316 C288.090025,423.139251 299.701762,418.575051 311.215579,413.772632 L316.095579,393.096842 C313.565684,394.304 309.546105,395.716631 303.972632,397.334737 C298.360632,398.927158 293.416421,399.749053 288.985895,399.749053 C279.598316,399.749053 272.97179,398.143789 269.183368,394.894737 C265.356421,391.684211 263.455789,385.635579 263.455789,376.710316 C263.455789,373.191579 264.046526,367.952 265.215158,361.081474 C266.409474,354.185263 267.745053,348.021053 269.221895,342.665895 L287.329263,275.681474 C289.191368,269.067789 290.411368,262.287158 290.976421,255.442316 C291.631369,248.070947 291.952421,242.934105 291.952421,240.018947 C291.952421,225.892632 287.188,214.424632 277.736211,205.602105 C268.233053,196.779579 254.748842,192.374737 237.232211,192.374737 C227.523579,192.374737 217.237053,194.172632 206.346947,197.806947 C194.763369,201.659579 183.359579,206.000211 172.122737,210.790316 L172.122737,210.790316 Z M308.017895,82.1381051 C299.580632,73.8421051 289.396842,69.7197894 277.492211,69.7197894 C265.613263,69.7197894 255.378106,73.8421051 246.838105,82.1381051 C238.362316,90.4084207 234.073053,100.425263 234.073053,112.060211 C234.073053,123.720842 238.375158,133.660632 246.838105,141.853895 C254.985898,149.91176 266.034335,154.350575 277.492211,154.169474 C289.384,154.169474 299.580632,150.072842 308.017895,141.853895 C316.455158,133.660632 320.705895,123.720842 320.705895,112.060211 C320.705895,100.425263 316.468,90.4084212 308.017895,82.1381051 L308.017895,82.1381051 Z" id="path-1"></path>
        <filter x="-2.0%" y="-2.0%" width="105.7%" height="105.7%" filterUnits="objectBoundingBox" id="filter-2">
            <feOffset dx="4" dy="4" in="SourceAlpha" result="shadowOffsetOuter1"></feOffset>
            <feGaussianBlur stdDeviation="4" in="shadowOffsetOuter1" result="shadowBlurOuter1"></feGaussianBlur>
            <feColorMatrix values="0 0 0 0 0   0 0 0 0 0   0 0 0 0 0  0 0 0 0.5 0" type="matrix" in="shadowBlurOuter1"></feColorMatrix>
        </filter>
    </defs>
    <g id="Page-1" stroke="none" stroke-width="1" fill="none" fill-rule="evenodd">
        <g id="Artboard" transform="translate(-8.000000, -8.000000)" fill-rule="nonzero">
            <g id="Group" transform="translate(12.000000, -99.000000)">
                <g id="log-about-page" transform="translate(0.000000, 111.000000)">
                    <g id="Shape">
                        <use fill="black" fill-opacity="1" filter="url(#filter-2)" xlink:href="#path-1"></use>
                        <use fill="#402356" fill-rule="evenodd" xlink:href="#path-1"></use>
                    </g>
                </g>
            </g>
        </g>
    </g>
</svg>